<?xml version="1.0" standalone="no"?>
<!DOCTYPE svg PUBLIC "-//W3C//DTD SVG 20010904//EN"
 "http://www.w3.org/TR/2001/REC-SVG-20010904/DTD/svg10.dtd">
<svg version="1.0" xmlns="http://www.w3.org/2000/svg"
 width="600.000000pt" height="600.000000pt" viewBox="0 0 600.000000 600.000000"
 preserveAspectRatio="xMidYMid meet">
<metadata>
Created by potrace 1.11, written by Peter Selinger 2001-2013
</metadata>
<g transform="translate(0.000000,600.000000) scale(0.100000,-0.100000)"
fill="#000000" stroke="none">
<path d="M4245 4370 c-3 -6 1 -7 9 -4 18 7 21 14 7 14 -6 0 -13 -4 -16 -10z"/>
<path d="M4274 4358 c-4 -6 -3 -8 4 -4 6 3 13 2 17 -4 3 -5 11 -10 16 -10 6 0
4 7 -5 15 -18 18 -23 19 -32 3z"/>
<path d="M4276 4322 c-3 -4 4 -9 15 -9 23 -2 25 3 4 10 -8 4 -16 3 -19 -1z"/>
<path d="M4197 4143 c3 -7 6 -13 8 -13 2 0 5 6 8 13 3 8 -1 14 -8 14 -7 0 -11
-6 -8 -14z"/>
<path d="M4117 3983 c3 -7 6 -13 8 -13 2 0 5 6 8 13 3 8 -1 14 -8 14 -7 0 -11
-6 -8 -14z"/>
<path d="M3906 3926 c-16 -12 -139 -249 -156 -302 -7 -19 -16 -37 -22 -40 -7
-5 -8 -2 -3 6 5 8 4 11 -3 6 -6 -4 -8 -14 -5 -23 4 -11 3 -14 -5 -9 -7 4 -10
2 -7 -6 3 -8 -1 -22 -10 -33 -15 -20 -15 -20 -8 0 3 11 3 17 -2 13 -4 -4 -8
-15 -9 -25 -2 -29 -57 -114 -68 -106 -7 3 -8 1 -4 -6 10 -15 -52 -123 -66
-115 -7 4 -8 2 -4 -5 6 -9 -48 -121 -59 -121 -2 0 3 16 11 36 8 20 13 38 11
41 -3 2 -11 -13 -18 -34 -13 -37 -14 -44 -17 -71 -1 -7 -7 -10 -14 -6 -7 4 -8
3 -4 -5 4 -6 -15 -48 -42 -94 -27 -45 -176 -296 -332 -557 -156 -261 -306
-513 -335 -560 -28 -47 -57 -102 -64 -122 l-13 -38 -929 0 -929 0 0 48 c0 61
27 293 41 357 28 123 81 306 108 370 33 79 131 271 176 346 30 51 55 93 55 95
0 1 14 18 30 36 17 18 43 51 58 73 62 91 247 277 372 372 47 36 89 72 93 80 4
7 13 13 18 13 6 0 58 29 117 65 58 36 113 65 121 65 12 0 12 3 -1 18 -9 9 -19
28 -23 42 -4 14 -14 33 -23 42 -8 10 -15 31 -16 48 -1 16 -2 30 -3 30 -15 0
-121 -69 -115 -75 4 -4 1 -5 -5 -1 -17 9 -55 -12 -47 -26 4 -7 3 -8 -4 -4 -7
4 -12 2 -12 -4 0 -6 -4 -9 -8 -6 -18 11 -285 -190 -275 -207 3 -5 1 -7 -4 -4
-13 8 -46 -27 -36 -37 4 -4 1 -4 -8 -1 -17 6 -223 -201 -213 -216 3 -5 1 -8
-4 -7 -5 2 -33 -26 -62 -62 -30 -36 -47 -59 -40 -52 8 6 19 12 24 12 6 0 -2
-8 -17 -19 -36 -23 -60 -58 -51 -73 4 -6 3 -8 -4 -4 -13 8 -55 -49 -57 -78 -2
-12 -7 -20 -13 -19 -15 4 -35 -34 -26 -49 4 -6 3 -8 -3 -5 -16 10 -116 -184
-116 -226 0 -15 -3 -23 -7 -16 -5 6 -12 -2 -19 -21 -6 -18 -8 -37 -4 -43 3 -5
1 -7 -5 -3 -6 3 -17 -11 -26 -36 -31 -84 -77 -234 -82 -267 -2 -18 -11 -57
-19 -85 -15 -53 -45 -239 -45 -278 0 -19 2 -20 10 -8 14 22 12 7 -6 -35 -10
-24 -14 -59 -12 -92 l3 -53 -46 0 c-25 0 -60 -5 -77 -11 -54 -19 -62 -101 -12
-126 20 -10 263 -13 1100 -13 l1076 0 28 -64 c119 -275 513 -275 632 0 l28 64
1076 0 c837 0 1080 3 1100 13 50 25 42 107 -12 126 -17 6 -52 11 -77 11 l-46
0 3 53 c2 33 -2 68 -12 92 -18 42 -20 57 -6 35 8 -12 10 -11 10 8 0 39 -30
225 -45 278 -8 28 -17 67 -19 85 -5 33 -51 183 -82 267 -9 25 -20 39 -26 36
-6 -4 -8 -2 -5 3 4 6 2 25 -4 43 -7 19 -14 27 -19 21 -4 -7 -7 1 -7 16 0 42
-100 236 -116 226 -6 -3 -7 -1 -3 5 9 15 -11 53 -26 49 -6 -1 -11 7 -13 19 -2
29 -44 86 -57 78 -7 -4 -8 -2 -4 4 9 15 -15 50 -51 73 -15 11 -23 19 -18 19 6
0 17 -6 25 -12 7 -7 -10 16 -40 52 -29 36 -57 64 -62 62 -5 -1 -7 2 -4 6 3 5
-3 17 -13 26 -13 11 -21 14 -26 7 -3 -6 -11 -11 -18 -11 -6 0 -2 6 9 14 18 14
18 16 -15 50 -19 20 -39 36 -44 36 -5 0 1 -9 14 -21 l24 -20 -27 16 c-17 10
-25 22 -21 32 4 9 1 13 -8 12 -8 -2 -30 12 -49 31 -22 21 -27 29 -13 21 12 -6
29 -21 37 -33 9 -12 16 -18 16 -12 0 19 -68 77 -81 69 -7 -5 -10 -4 -6 2 8 13
-27 46 -38 36 -4 -5 -5 -3 -2 3 10 18 -256 219 -275 208 -4 -3 -8 0 -8 6 0 6
-5 8 -12 4 -7 -4 -8 -3 -4 4 8 14 -30 35 -47 26 -6 -4 -9 -3 -5 1 5 5 -18 23
-50 40 -33 19 -56 39 -56 48 1 8 -4 13 -11 11 -7 -3 -44 10 -83 29 -56 28 -74
32 -86 23z m-1996 -106 c0 -5 -5 -10 -11 -10 -5 0 -7 5 -4 10 3 6 8 10 11 10
2 0 4 -4 4 -10z m2195 0 c3 -5 1 -10 -4 -10 -6 0 -11 5 -11 10 0 6 2 10 4 10
3 0 8 -4 11 -10z m65 -30 c8 -5 11 -10 5 -10 -5 0 -17 5 -25 10 -8 5 -10 10
-5 10 6 0 17 -5 25 -10z m-38 -185 c59 -36 111 -65 117 -65 5 0 14 -6 18 -13
4 -8 46 -44 93 -80 125 -95 310 -281 372 -372 15 -22 41 -55 58 -73 16 -18 30
-35 30 -36 0 -2 25 -44 55 -95 45 -75 143 -267 176 -346 27 -64 80 -247 108
-370 14 -64 41 -296 41 -357 l0 -48 -901 0 c-854 0 -901 1 -894 18 4 9 100
267 215 572 115 305 256 681 314 835 65 172 106 294 106 317 0 45 -15 86 -42
115 -23 25 -17 63 11 63 9 0 65 -29 123 -65z m-2562 5 c0 -5 -5 -10 -11 -10
-5 0 -7 5 -4 10 3 6 8 10 11 10 2 0 4 -4 4 -10z m2875 0 c3 -5 1 -10 -4 -10
-6 0 -11 5 -11 10 0 6 2 10 4 10 3 0 8 -4 11 -10z m-2930 -57 c-1 -11 -9 -17
-20 -15 -11 2 -14 -1 -9 -9 5 -8 3 -10 -6 -4 -10 6 -7 12 11 26 29 23 28 23
24 2z m3015 -19 c0 -1 -5 -6 -12 -10 -7 -5 -8 -3 -4 5 5 8 2 11 -9 9 -11 -2
-19 4 -20 14 -3 16 -1 16 21 1 13 -8 24 -17 24 -19z m-3130 -69 c0 -2 -10 -9
-22 -15 -22 -11 -22 -10 -4 4 21 17 26 19 26 11z m-48 -53 c-9 -3 -9 -9 -1
-24 14 -25 6 -33 -20 -18 -15 8 -21 8 -21 0 0 -6 -5 -8 -12 -4 -8 5 -5 11 10
17 12 6 24 18 27 29 4 10 11 15 18 11 8 -5 8 -8 -1 -11z m-91 -90 c-6 -11 -7
-22 -4 -26 3 -3 1 -6 -5 -6 -6 0 -14 5 -17 10 -3 6 -2 10 4 10 5 0 13 9 16 21
4 11 9 18 12 16 2 -3 0 -14 -6 -25z m3487 -7 c-3 -3 -9 2 -12 12 -6 14 -5 15
5 6 7 -7 10 -15 7 -18z m-3556 -97 c-6 -6 -19 -13 -28 -14 -9 -1 -13 1 -9 4 4
4 12 7 18 7 7 0 11 9 10 19 -1 13 2 15 10 7 8 -8 8 -14 -1 -23z m3624 15 c0
-10 4 -18 11 -18 6 0 14 -3 18 -7 4 -3 0 -5 -9 -4 -23 3 -40 22 -32 35 10 16
14 14 12 -6z m-3885 -360 c-12 -20 -14 -14 -5 12 4 9 9 14 11 11 3 -2 0 -13
-6 -23z m4149 -8 c0 -5 -5 -3 -10 5 -5 8 -10 20 -10 25 0 6 5 3 10 -5 5 -8 10
-19 10 -25z m-4170 -45 c0 -5 -5 -10 -11 -10 -5 0 -7 5 -4 10 3 6 8 10 11 10
2 0 4 -4 4 -10z m4195 0 c3 -5 1 -10 -4 -10 -6 0 -11 5 -11 10 0 6 2 10 4 10
3 0 8 -4 11 -10z m-4235 -74 c0 -2 -7 -9 -15 -16 -13 -11 -14 -10 -9 4 5 14
24 23 24 12z m4284 -12 c5 -14 4 -15 -9 -4 -17 14 -19 20 -6 20 5 0 12 -7 15
-16z m-4367 -169 c0 -8 -4 -12 -9 -9 -5 3 -6 10 -3 15 9 13 12 11 12 -6z
m4438 6 c3 -5 2 -12 -3 -15 -5 -3 -9 1 -9 9 0 17 3 19 12 6z m-4445 -111 c0
-8 -7 -2 -15 14 -19 36 -19 45 0 20 8 -10 14 -26 15 -34z m4455 14 c-8 -16
-15 -23 -15 -16 0 13 22 53 27 48 2 -2 -3 -16 -12 -32z m-4521 -140 c3 -8 2
-12 -4 -9 -6 3 -10 10 -10 16 0 14 7 11 14 -7z m4577 -7 c-10 -9 -11 -8 -5 6
3 10 9 15 12 12 3 -3 0 -11 -7 -18z m-4612 -187 c0 -10 -3 -8 -9 5 -12 27 -12
43 0 25 5 -8 9 -22 9 -30z m4652 9 c-5 -13 -10 -19 -10 -12 -1 15 10 45 15 40
3 -2 0 -15 -5 -28z m-4629 -1 c-7 -7 -12 -8 -12 -2 0 14 12 26 19 19 2 -3 -1
-11 -7 -17z m4608 1 c0 -6 -4 -7 -10 -4 -5 3 -10 11 -10 16 0 6 5 7 10 4 6 -3
10 -11 10 -16z m-2380 -374 c0 -2 -6 -5 -13 -8 -8 -3 -14 1 -14 8 0 7 6 11 14
8 7 -3 13 -6 13 -8z m167 1 c0 -8 -6 -12 -15 -9 -11 5 -11 7 0 14 7 5 13 9 14
9 0 0 1 -6 1 -14z m-177 -196 c-13 -9 -13 -11 0 -20 8 -5 10 -10 4 -10 -6 0
-17 6 -23 14 -9 11 -9 15 1 19 22 9 34 7 18 -3z m174 4 c13 -5 14 -9 5 -20 -6
-8 -17 -14 -23 -14 -6 0 -4 5 4 10 13 9 13 11 0 20 -17 11 -10 13 14 4z"/>
<path d="M3630 3485 c0 -8 2 -15 4 -15 2 0 6 7 10 15 3 8 1 15 -4 15 -6 0 -10
-7 -10 -15z"/>
<path d="M3530 3330 c0 -5 7 -10 16 -10 8 0 12 5 9 10 -3 6 -10 10 -16 10 -5
0 -9 -4 -9 -10z"/>
</g>
</svg>
